<svg xmlns="http://www.w3.org/2000/svg" viewBox="0 0 84.58 56.33"><defs><style>.cls-1{fill:#3c6;}.cls-2{fill:none;stroke:#fc9;stroke-linecap:round;stroke-miterlimit:10;}</style></defs><title>Asset 3</title><g id="Layer_2" data-name="Layer 2"><g id="Layer_1-2" data-name="Layer 1"><path class="cls-1" d="M34,14.55a2.11,2.11,0,0,1,.15.15Q39.47,20,44.82,25.38L46.41,27l1.1,1.12,0,0-.76.79c-1.05,1.07-2.08,2.14-3.12,3.19l-5,5c-1.57,1.58-3.14,3.15-4.7,4.73l-7.31-7.3-2.26-2.27-1.21-1.21c-.95-.95-1.9-1.91-2.86-2.84l0,0h0c1.46-1.43,2.93-2.9,4.34-4.33l2-2,2.73-2.72c1.46-1.46,2.93-2.92,4.4-4.4l.14-.14M60.09,18.5h0m-.16.14,4.61,4.63q2.37,2.37,4.73,4.75c.06.06.12.11.17.17-3,3.06-6.11,6.13-9.11,9.1l-.39.38,0,0-.06-.05Q56.05,33.81,52.2,30l-1.8-1.79.05,0,1.79-1.79c2.53-2.52,5.14-5.13,7.69-7.72h0m18.18,3.65h0m-.3.29.09.09,2.45,2.45c1,1,2,2.06,3.06,3.07l-5.55,5.56c-.82-.83-1.65-1.65-2.48-2.47-1-1-2.08-2.05-3.11-3.09v0l.16-.15c1.76-1.78,3.53-3.56,5.29-5.35l.1-.09M34,13.36c-.22,0-.44.22-.86.64-2.37,2.38-4.75,4.73-7.12,7.1-2.12,2.12-4.21,4.26-6.36,6.35-.6.58-.49,1,0,1.47,1.37,1.34,2.71,2.7,4.06,4l9.6,9.61A1,1,0,0,0,34,43a.79.79,0,0,0,.55-.28c3.26-3.3,6.54-6.57,9.81-9.87,1.51-1.52,3-3.07,4.53-4.65a4.46,4.46,0,0,1,.43.36q4.92,4.91,9.82,9.82c.37.37.56.56.76.56s.38-.17.73-.52c3.2-3.17,6.4-6.32,9.55-9.53a1,1,0,0,1,.67-.39,1,1,0,0,1,.7.42c1.9,1.92,3.83,3.8,5.74,5.71a.82.82,0,0,0,.57.32.75.75,0,0,0,.52-.29q2.94-3,5.9-5.9c.39-.39.38-.7,0-1.1-1.9-1.88-3.77-3.79-5.67-5.67-.39-.4-.6-.59-.8-.59s-.4.2-.8.6l-5.29,5.35c-.38.38-.63.56-.87.56s-.49-.19-.86-.57c-3.11-3.13-6.24-6.25-9.35-9.39a1,1,0,0,0-.69-.39,1.08,1.08,0,0,0-.73.41c-3.13,3.19-6.3,6.34-9.47,9.5-.33.33-.53.49-.74.49s-.43-.18-.78-.53c-.9-.91-1.79-1.83-2.7-2.73Q40.18,19.33,34.83,14c-.43-.43-.65-.63-.86-.63Z"/><polyline class="cls-2" points="28.37 0.5 0.71 28.16 28.37 55.83"/></g></g></svg>