<svg xmlns="http://www.w3.org/2000/svg" viewBox="0 0 84.58 56.33"><defs><style>.cls-1{fill:#3cc;}.cls-2{fill:none;stroke:#09f;stroke-linecap:round;stroke-miterlimit:10;}</style></defs><title>Asset 2</title><g id="Layer_2" data-name="Layer 2"><g id="Layer_1-2" data-name="Layer 1"><path class="cls-1" d="M50.89,14.29h0m-.29.26s.11.1.16.16q2.19,2.2,4.4,4.39l2.72,2.71,2,2.05c1.41,1.42,2.87,2.89,4.33,4.31h0l0,0c-1,.94-1.92,1.89-2.87,2.85l-1.2,1.2-2.57,2.57q-3.49,3.51-7,7l-4.74-4.76-4.92-5c-1-1-2.05-2.09-3.09-3.16L37,28.14l0,0L38.15,27l1.61-1.62Q45.1,20,50.45,14.7l.15-.15M24.8,18.5h0m-.16.14h0c2.54,2.59,5.16,5.19,7.68,7.71l1.8,1.8,0,0L32.56,29.8q-3.93,3.91-7.85,7.85l-.05.05,0,0-.35-.34c-3-3-6.13-6.07-9.16-9.14l.18-.17c1.57-1.59,3.15-3.17,4.72-4.75l4.61-4.63M7.08,22.29h0m-.31.29.09.09L12.16,28l.16.16h0c-1,1-2.07,2.06-3.11,3.09-.83.82-1.66,1.64-2.48,2.47Q3.95,31,1.16,28.19q1.55-1.53,3.07-3.07c.81-.82,1.63-1.64,2.45-2.45l.09-.09m43.84-9.22c-.22,0-.44.2-.86.63q-5.36,5.32-10.7,10.68c-.9.9-1.79,1.82-2.69,2.73-.35.35-.57.53-.78.53s-.41-.16-.74-.49c-3.17-3.16-6.34-6.31-9.48-9.5a1.06,1.06,0,0,0-.72-.41,1,1,0,0,0-.69.39c-3.11,3.14-6.24,6.26-9.35,9.39-.38.38-.62.57-.86.57s-.49-.18-.87-.56L7.57,22c-.39-.4-.59-.6-.79-.6s-.41.19-.81.59C4.08,23.84,2.21,25.75.31,27.63c-.41.4-.41.71,0,1.1,2,2,3.94,3.93,5.89,5.9a.77.77,0,0,0,.53.29.84.84,0,0,0,.57-.32c1.9-1.91,3.84-3.79,5.74-5.71.26-.27.47-.42.69-.42a1,1,0,0,1,.68.39c3.15,3.21,6.35,6.36,9.54,9.53.36.35.56.52.74.52s.39-.19.75-.56q4.91-4.92,9.83-9.82a4.46,4.46,0,0,1,.43-.36c1.53,1.58,3,3.13,4.53,4.65,3.26,3.3,6.54,6.57,9.81,9.87a.79.79,0,0,0,.55.28,1.07,1.07,0,0,0,.69-.39Q56,37.77,60.86,33c1.35-1.35,2.69-2.71,4-4,.53-.51.64-.89,0-1.47-2.15-2.09-4.24-4.23-6.37-6.35-2.36-2.37-4.75-4.72-7.11-7.1-.42-.42-.64-.64-.86-.64Z"/><polyline class="cls-2" points="56.2 0.5 83.87 28.16 56.2 55.83"/></g></g></svg>